<svg width="200" height="200" viewBox="0 0 200 200" fill="none" xmlns="http://www.w3.org/2000/svg">
<path fill-rule="evenodd" clip-rule="evenodd" d="M159.741 20.9864C157.788 22.939 157.788 26.1049 159.741 28.0575L171.762 40.0783C173.714 42.0309 176.88 42.0309 178.833 40.0783L196.284 22.6274C198.236 20.6748 198.236 17.509 196.284 15.5563L184.263 3.53553C182.31 1.58291 179.144 1.58291 177.192 3.53553L159.741 20.9864ZM183.485 9.41421C182.704 8.63316 181.438 8.63316 180.657 9.41421L179.676 10.395C178.895 11.1761 178.895 12.4424 179.676 13.2234L186.764 20.3112C187.545 21.0923 188.811 21.0923 189.592 20.3112L190.573 19.3304C191.354 18.5494 191.354 17.283 190.573 16.502L183.485 9.41421Z" fill="#212121"/>
<circle cx="100" cy="100" r="97.5" fill="#212121" stroke="#333333" stroke-width="5"/>
<ellipse cx="99.5" cy="100" rx="76.5" ry="76" fill="#333333"/>
<mask id="path-4-inside-1_55_28" fill="white">
<path d="M71.8083 40.2373L78.8794 47.3084L71.8083 54.3794L64.7373 47.3084L71.8083 40.2373Z"/>
</mask>
<path d="M71.8083 40.2373L73.2226 38.8231C72.4415 38.042 71.1752 38.042 70.3941 38.8231L71.8083 40.2373ZM70.3941 41.6515L77.4652 48.7226L80.2936 45.8942L73.2226 38.8231L70.3941 41.6515ZM66.1515 48.7226L73.2226 41.6515L70.3941 38.8231L63.3231 45.8942L66.1515 48.7226Z" fill="#3E3E3E" mask="url(#path-4-inside-1_55_28)"/>
<mask id="path-6-inside-2_55_28" fill="white">
<path d="M85.9506 40.2373L93.0216 47.3084L85.9506 54.3794L78.8795 47.3084L85.9506 40.2373Z"/>
</mask>
<path d="M85.9506 40.2373L87.3648 38.8231C86.5837 38.042 85.3174 38.042 84.5363 38.8231L85.9506 40.2373ZM84.5363 41.6515L91.6074 48.7226L94.4358 45.8942L87.3648 38.8231L84.5363 41.6515ZM80.2937 48.7226L87.3648 41.6515L84.5363 38.8231L77.4653 45.8942L80.2937 48.7226Z" fill="#3E3E3E" mask="url(#path-6-inside-2_55_28)"/>
<mask id="path-8-inside-3_55_28" fill="white">
<path d="M100.093 40.2373L107.164 47.3084L100.093 54.3794L93.0216 47.3084L100.093 40.2373Z"/>
</mask>
<path d="M100.093 40.2373L101.507 38.8231C100.726 38.042 99.4595 38.042 98.6784 38.8231L100.093 40.2373ZM98.6784 41.6515L105.75 48.7226L108.578 45.8942L101.507 38.8231L98.6784 41.6515ZM94.4358 48.7226L101.507 41.6515L98.6784 38.8231L91.6074 45.8942L94.4358 48.7226Z" fill="#3E3E3E" mask="url(#path-8-inside-3_55_28)"/>
<mask id="path-10-inside-4_55_28" fill="white">
<path d="M114.235 40.2373L121.306 47.3084L114.235 54.3794L107.164 47.3084L114.235 40.2373Z"/>
</mask>
<path d="M114.235 40.2373L115.649 38.8231C114.868 38.042 113.602 38.042 112.821 38.8231L114.235 40.2373ZM112.821 41.6515L119.892 48.7226L122.72 45.8942L115.649 38.8231L112.821 41.6515ZM108.578 48.7226L115.649 41.6515L112.821 38.8231L105.749 45.8942L108.578 48.7226Z" fill="#3E3E3E" mask="url(#path-10-inside-4_55_28)"/>
<mask id="path-12-inside-5_55_28" fill="white">
<path d="M128.377 40.2373L135.448 47.3084L128.377 54.3794L121.306 47.3084L128.377 40.2373Z"/>
</mask>
<path d="M128.377 40.2373L129.791 38.8231C129.01 38.042 127.744 38.042 126.963 38.8231L128.377 40.2373ZM126.963 41.6515L134.034 48.7226L136.862 45.8942L129.791 38.8231L126.963 41.6515ZM122.72 48.7226L129.791 41.6515L126.963 38.8231L119.892 45.8942L122.72 48.7226Z" fill="#3E3E3E" mask="url(#path-12-inside-5_55_28)"/>
<mask id="path-14-inside-6_55_28" fill="white">
<path d="M57.8083 53.2373L64.8794 60.3084L57.8083 67.3794L50.7373 60.3084L57.8083 53.2373Z"/>
</mask>
<path d="M57.8083 53.2373L59.2226 51.8231C58.4415 51.042 57.1752 51.042 56.3941 51.8231L57.8083 53.2373ZM56.3941 54.6515L63.4652 61.7226L66.2936 58.8942L59.2226 51.8231L56.3941 54.6515ZM52.1515 61.7226L59.2226 54.6515L56.3941 51.8231L49.3231 58.8942L52.1515 61.7226Z" fill="#3E3E3E" mask="url(#path-14-inside-6_55_28)"/>
<mask id="path-16-inside-7_55_28" fill="white">
<path d="M71.9506 53.2373L79.0216 60.3084L71.9506 67.3794L64.8795 60.3084L71.9506 53.2373Z"/>
</mask>
<path d="M71.9506 53.2373L73.3648 51.8231C72.5837 51.042 71.3174 51.042 70.5363 51.8231L71.9506 53.2373ZM70.5363 54.6515L77.6074 61.7226L80.4358 58.8942L73.3648 51.8231L70.5363 54.6515ZM66.2937 61.7226L73.3648 54.6515L70.5363 51.8231L63.4653 58.8942L66.2937 61.7226Z" fill="#3E3E3E" mask="url(#path-16-inside-7_55_28)"/>
<mask id="path-18-inside-8_55_28" fill="white">
<path d="M86.0927 53.2373L93.1637 60.3084L86.0927 67.3794L79.0216 60.3084L86.0927 53.2373Z"/>
</mask>
<path d="M86.0927 53.2373L87.5069 51.8231C86.7258 51.042 85.4595 51.042 84.6784 51.8231L86.0927 53.2373ZM84.6784 54.6515L91.7495 61.7226L94.5779 58.8942L87.5069 51.8231L84.6784 54.6515ZM80.4358 61.7226L87.5069 54.6515L84.6784 51.8231L77.6074 58.8942L80.4358 61.7226Z" fill="#3E3E3E" mask="url(#path-18-inside-8_55_28)"/>
<mask id="path-20-inside-9_55_28" fill="white">
<path d="M100.235 53.2373L107.306 60.3084L100.235 67.3794L93.1637 60.3084L100.235 53.2373Z"/>
</mask>
<path d="M100.235 53.2373L101.649 51.8231C100.868 51.042 99.6016 51.042 98.8205 51.8231L100.235 53.2373ZM98.8205 54.6515L105.892 61.7226L108.72 58.8942L101.649 51.8231L98.8205 54.6515ZM94.5779 61.7226L101.649 54.6515L98.8205 51.8231L91.7495 58.8942L94.5779 61.7226Z" fill="#3E3E3E" mask="url(#path-20-inside-9_55_28)"/>
<mask id="path-22-inside-10_55_28" fill="white">
<path d="M114.377 53.2373L121.448 60.3084L114.377 67.3794L107.306 60.3084L114.377 53.2373Z"/>
</mask>
<path d="M114.377 53.2373L115.791 51.8231C115.01 51.042 113.744 51.042 112.963 51.8231L114.377 53.2373ZM112.963 54.6515L120.034 61.7226L122.862 58.8942L115.791 51.8231L112.963 54.6515ZM108.72 61.7226L115.791 54.6515L112.963 51.8231L105.892 58.8942L108.72 61.7226Z" fill="#3E3E3E" mask="url(#path-22-inside-10_55_28)"/>
<mask id="path-24-inside-11_55_28" fill="white">
<path d="M128.519 53.2373L135.59 60.3084L128.519 67.3794L121.448 60.3084L128.519 53.2373Z"/>
</mask>
<path d="M128.519 53.2373L129.933 51.8231C129.152 51.042 127.886 51.042 127.105 51.8231L128.519 53.2373ZM127.105 54.6515L134.176 61.7226L137.004 58.8942L129.933 51.8231L127.105 54.6515ZM122.862 61.7226L129.933 54.6515L127.105 51.8231L120.034 58.8942L122.862 61.7226Z" fill="#3E3E3E" mask="url(#path-24-inside-11_55_28)"/>
<mask id="path-26-inside-12_55_28" fill="white">
<path d="M142.661 53.2373L149.732 60.3084L142.661 67.3794L135.59 60.3084L142.661 53.2373Z"/>
</mask>
<path d="M142.661 53.2373L144.075 51.8231C143.294 51.042 142.028 51.042 141.247 51.8231L142.661 53.2373ZM141.247 54.6515L148.318 61.7226L151.146 58.8942L144.075 51.8231L141.247 54.6515ZM137.004 61.7226L144.075 54.6515L141.247 51.8231L134.176 58.8942L137.004 61.7226Z" fill="#3E3E3E" mask="url(#path-26-inside-12_55_28)"/>
<mask id="path-28-inside-13_55_28" fill="white">
<path d="M43.8083 67.2373L50.8794 74.3084L43.8083 81.3794L36.7373 74.3084L43.8083 67.2373Z"/>
</mask>
<path d="M43.8083 67.2373L45.2226 65.8231C44.4415 65.042 43.1752 65.042 42.3941 65.8231L43.8083 67.2373ZM42.3941 68.6515L49.4652 75.7226L52.2936 72.8942L45.2226 65.8231L42.3941 68.6515ZM38.1515 75.7226L45.2226 68.6515L42.3941 65.8231L35.3231 72.8942L38.1515 75.7226Z" fill="#3E3E3E" mask="url(#path-28-inside-13_55_28)"/>
<mask id="path-30-inside-14_55_28" fill="white">
<path d="M57.9506 67.2373L65.0216 74.3084L57.9506 81.3794L50.8795 74.3084L57.9506 67.2373Z"/>
</mask>
<path d="M57.9506 67.2373L59.3648 65.8231C58.5837 65.042 57.3174 65.042 56.5363 65.8231L57.9506 67.2373ZM56.5363 68.6515L63.6074 75.7226L66.4358 72.8942L59.3648 65.8231L56.5363 68.6515ZM52.2937 75.7226L59.3648 68.6515L56.5363 65.8231L49.4653 72.8942L52.2937 75.7226Z" fill="#3E3E3E" mask="url(#path-30-inside-14_55_28)"/>
<mask id="path-32-inside-15_55_28" fill="white">
<path d="M72.0927 67.2373L79.1637 74.3084L72.0927 81.3794L65.0216 74.3084L72.0927 67.2373Z"/>
</mask>
<path d="M72.0927 67.2373L73.5069 65.8231C72.7258 65.042 71.4595 65.042 70.6784 65.8231L72.0927 67.2373ZM70.6784 68.6515L77.7495 75.7226L80.5779 72.8942L73.5069 65.8231L70.6784 68.6515ZM66.4358 75.7226L73.5069 68.6515L70.6784 65.8231L63.6074 72.8942L66.4358 75.7226Z" fill="#3E3E3E" mask="url(#path-32-inside-15_55_28)"/>
<mask id="path-34-inside-16_55_28" fill="white">
<path d="M86.2347 67.2373L93.3058 74.3084L86.2347 81.3794L79.1637 74.3084L86.2347 67.2373Z"/>
</mask>
<path d="M86.2347 67.2373L87.649 65.8231C86.8679 65.042 85.6016 65.042 84.8205 65.8231L86.2347 67.2373ZM84.8205 68.6515L91.8916 75.7226L94.72 72.8942L87.649 65.8231L84.8205 68.6515ZM80.5779 75.7226L87.649 68.6515L84.8205 65.8231L77.7495 72.8942L80.5779 75.7226Z" fill="#3E3E3E" mask="url(#path-34-inside-16_55_28)"/>
<mask id="path-36-inside-17_55_28" fill="white">
<path d="M100.377 67.2373L107.448 74.3084L100.377 81.3794L93.3059 74.3084L100.377 67.2373Z"/>
</mask>
<path d="M100.377 67.2373L101.791 65.8231C101.01 65.042 99.7438 65.042 98.9627 65.8231L100.377 67.2373ZM98.9627 68.6515L106.034 75.7226L108.862 72.8942L101.791 65.8231L98.9627 68.6515ZM94.7201 75.7226L101.791 68.6515L98.9627 65.8231L91.8917 72.8942L94.7201 75.7226Z" fill="#3E3E3E" mask="url(#path-36-inside-17_55_28)"/>
<mask id="path-38-inside-18_55_28" fill="white">
<path d="M114.519 67.2373L121.59 74.3084L114.519 81.3794L107.448 74.3084L114.519 67.2373Z"/>
</mask>
<path d="M114.519 67.2373L115.933 65.8231C115.152 65.042 113.886 65.042 113.105 65.8231L114.519 67.2373ZM113.105 68.6515L120.176 75.7226L123.004 72.8942L115.933 65.8231L113.105 68.6515ZM108.862 75.7226L115.933 68.6515L113.105 65.8231L106.034 72.8942L108.862 75.7226Z" fill="#3E3E3E" mask="url(#path-38-inside-18_55_28)"/>
<mask id="path-40-inside-19_55_28" fill="white">
<path d="M128.661 67.2373L135.732 74.3084L128.661 81.3794L121.59 74.3084L128.661 67.2373Z"/>
</mask>
<path d="M128.661 67.2373L130.075 65.8231C129.294 65.042 128.028 65.042 127.247 65.8231L128.661 67.2373ZM127.247 68.6515L134.318 75.7226L137.146 72.8942L130.075 65.8231L127.247 68.6515ZM123.004 75.7226L130.075 68.6515L127.247 65.8231L120.176 72.8942L123.004 75.7226Z" fill="#3E3E3E" mask="url(#path-40-inside-19_55_28)"/>
<mask id="path-42-inside-20_55_28" fill="white">
<path d="M142.803 67.2373L149.874 74.3084L142.803 81.3794L135.732 74.3084L142.803 67.2373Z"/>
</mask>
<path d="M142.803 67.2373L144.218 65.8231C143.437 65.042 142.17 65.042 141.389 65.8231L142.803 67.2373ZM141.389 68.6515L148.46 75.7226L151.289 72.8942L144.218 65.8231L141.389 68.6515ZM137.146 75.7226L144.218 68.6515L141.389 65.8231L134.318 72.8942L137.146 75.7226Z" fill="#3E3E3E" mask="url(#path-42-inside-20_55_28)"/>
<mask id="path-44-inside-21_55_28" fill="white">
<path d="M156.945 67.2373L164.017 74.3084L156.945 81.3794L149.874 74.3084L156.945 67.2373Z"/>
</mask>
<path d="M156.945 67.2373L158.36 65.8231C157.579 65.042 156.312 65.042 155.531 65.8231L156.945 67.2373ZM155.531 68.6515L162.602 75.7226L165.431 72.8942L158.36 65.8231L155.531 68.6515ZM151.289 75.7226L158.36 68.6515L155.531 65.8231L148.46 72.8942L151.289 75.7226Z" fill="#3E3E3E" mask="url(#path-44-inside-21_55_28)"/>
<mask id="path-46-inside-22_55_28" fill="white">
<path d="M70.8083 151.237L77.8794 158.308L70.8083 165.379L63.7373 158.308L70.8083 151.237Z"/>
</mask>
<path d="M70.8083 151.237L72.2226 149.823C71.4415 149.042 70.1752 149.042 69.3941 149.823L70.8083 151.237ZM69.3941 152.652L76.4652 159.723L79.2936 156.894L72.2226 149.823L69.3941 152.652ZM65.1515 159.723L72.2226 152.652L69.3941 149.823L62.3231 156.894L65.1515 159.723Z" fill="#3E3E3E" mask="url(#path-46-inside-22_55_28)"/>
<mask id="path-48-inside-23_55_28" fill="white">
<path d="M84.9506 151.237L92.0216 158.308L84.9506 165.379L77.8795 158.308L84.9506 151.237Z"/>
</mask>
<path d="M84.9506 151.237L86.3648 149.823C85.5837 149.042 84.3174 149.042 83.5363 149.823L84.9506 151.237ZM83.5363 152.652L90.6074 159.723L93.4358 156.894L86.3648 149.823L83.5363 152.652ZM79.2937 159.723L86.3648 152.652L83.5363 149.823L76.4653 156.894L79.2937 159.723Z" fill="#3E3E3E" mask="url(#path-48-inside-23_55_28)"/>
<mask id="path-50-inside-24_55_28" fill="white">
<path d="M99.0927 151.237L106.164 158.308L99.0927 165.379L92.0216 158.308L99.0927 151.237Z"/>
</mask>
<path d="M99.0927 151.237L100.507 149.823C99.7258 149.042 98.4595 149.042 97.6784 149.823L99.0927 151.237ZM97.6784 152.652L104.75 159.723L107.578 156.894L100.507 149.823L97.6784 152.652ZM93.4358 159.723L100.507 152.652L97.6784 149.823L90.6074 156.894L93.4358 159.723Z" fill="#3E3E3E" mask="url(#path-50-inside-24_55_28)"/>
<mask id="path-52-inside-25_55_28" fill="white">
<path d="M113.235 151.237L120.306 158.308L113.235 165.379L106.164 158.308L113.235 151.237Z"/>
</mask>
<path d="M113.235 151.237L114.649 149.823C113.868 149.042 112.602 149.042 111.821 149.823L113.235 151.237ZM111.821 152.652L118.892 159.723L121.72 156.894L114.649 149.823L111.821 152.652ZM107.578 159.723L114.649 152.652L111.821 149.823L104.749 156.894L107.578 159.723Z" fill="#3E3E3E" mask="url(#path-52-inside-25_55_28)"/>
<mask id="path-54-inside-26_55_28" fill="white">
<path d="M127.377 151.237L134.448 158.308L127.377 165.379L120.306 158.308L127.377 151.237Z"/>
</mask>
<path d="M127.377 151.237L128.791 149.823C128.01 149.042 126.744 149.042 125.963 149.823L127.377 151.237ZM125.963 152.652L133.034 159.723L135.862 156.894L128.791 149.823L125.963 152.652ZM121.72 159.723L128.791 152.652L125.963 149.823L118.892 156.894L121.72 159.723Z" fill="#3E3E3E" mask="url(#path-54-inside-26_55_28)"/>
<mask id="path-56-inside-27_55_28" fill="white">
<path d="M42.8083 81.2373L49.8794 88.3084L42.8083 95.3794L35.7373 88.3084L42.8083 81.2373Z"/>
</mask>
<path d="M42.8083 81.2373L44.2226 79.8231C43.4415 79.042 42.1752 79.042 41.3941 79.8231L42.8083 81.2373ZM41.3941 82.6515L48.4652 89.7226L51.2936 86.8942L44.2226 79.8231L41.3941 82.6515ZM37.1515 89.7226L44.2226 82.6515L41.3941 79.8231L34.3231 86.8942L37.1515 89.7226Z" fill="#3E3E3E" mask="url(#path-56-inside-27_55_28)"/>
<mask id="path-58-inside-28_55_28" fill="white">
<path d="M56.9506 81.2373L64.0216 88.3084L56.9506 95.3794L49.8795 88.3084L56.9506 81.2373Z"/>
</mask>
<path d="M56.9506 81.2373L58.3648 79.8231C57.5837 79.042 56.3174 79.042 55.5363 79.8231L56.9506 81.2373ZM55.5363 82.6515L62.6074 89.7226L65.4358 86.8942L58.3648 79.8231L55.5363 82.6515ZM51.2937 89.7226L58.3648 82.6515L55.5363 79.8231L48.4653 86.8942L51.2937 89.7226Z" fill="#3E3E3E" mask="url(#path-58-inside-28_55_28)"/>
<mask id="path-60-inside-29_55_28" fill="white">
<path d="M71.0927 81.2373L78.1637 88.3084L71.0927 95.3794L64.0216 88.3084L71.0927 81.2373Z"/>
</mask>
<path d="M71.0927 81.2373L72.5069 79.8231C71.7258 79.042 70.4595 79.042 69.6784 79.8231L71.0927 81.2373ZM69.6784 82.6515L76.7495 89.7226L79.5779 86.8942L72.5069 79.8231L69.6784 82.6515ZM65.4358 89.7226L72.5069 82.6515L69.6784 79.8231L62.6074 86.8942L65.4358 89.7226Z" fill="#3E3E3E" mask="url(#path-60-inside-29_55_28)"/>
<mask id="path-62-inside-30_55_28" fill="white">
<path d="M85.2347 81.2373L92.3058 88.3084L85.2347 95.3794L78.1637 88.3084L85.2347 81.2373Z"/>
</mask>
<path d="M85.2347 81.2373L86.649 79.8231C85.8679 79.042 84.6016 79.042 83.8205 79.8231L85.2347 81.2373ZM83.8205 82.6515L90.8916 89.7226L93.72 86.8942L86.649 79.8231L83.8205 82.6515ZM79.5779 89.7226L86.649 82.6515L83.8205 79.8231L76.7495 86.8942L79.5779 89.7226Z" fill="#3E3E3E" mask="url(#path-62-inside-30_55_28)"/>
<mask id="path-64-inside-31_55_28" fill="white">
<path d="M99.377 81.2373L106.448 88.3084L99.377 95.3794L92.3059 88.3084L99.377 81.2373Z"/>
</mask>
<path d="M99.377 81.2373L100.791 79.8231C100.01 79.042 98.7438 79.042 97.9627 79.8231L99.377 81.2373ZM97.9627 82.6515L105.034 89.7226L107.862 86.8942L100.791 79.8231L97.9627 82.6515ZM93.7201 89.7226L100.791 82.6515L97.9627 79.8231L90.8917 86.8942L93.7201 89.7226Z" fill="#3E3E3E" mask="url(#path-64-inside-31_55_28)"/>
<mask id="path-66-inside-32_55_28" fill="white">
<path d="M113.519 81.2373L120.59 88.3084L113.519 95.3794L106.448 88.3084L113.519 81.2373Z"/>
</mask>
<path d="M113.519 81.2373L114.933 79.8231C114.152 79.042 112.886 79.042 112.105 79.8231L113.519 81.2373ZM112.105 82.6515L119.176 89.7226L122.004 86.8942L114.933 79.8231L112.105 82.6515ZM107.862 89.7226L114.933 82.6515L112.105 79.8231L105.034 86.8942L107.862 89.7226Z" fill="#3E3E3E" mask="url(#path-66-inside-32_55_28)"/>
<mask id="path-68-inside-33_55_28" fill="white">
<path d="M127.661 81.2373L134.732 88.3084L127.661 95.3794L120.59 88.3084L127.661 81.2373Z"/>
</mask>
<path d="M127.661 81.2373L129.075 79.8231C128.294 79.042 127.028 79.042 126.247 79.8231L127.661 81.2373ZM126.247 82.6515L133.318 89.7226L136.146 86.8942L129.075 79.8231L126.247 82.6515ZM122.004 89.7226L129.075 82.6515L126.247 79.8231L119.176 86.8942L122.004 89.7226Z" fill="#3E3E3E" mask="url(#path-68-inside-33_55_28)"/>
<mask id="path-70-inside-34_55_28" fill="white">
<path d="M141.803 81.2373L148.874 88.3084L141.803 95.3794L134.732 88.3084L141.803 81.2373Z"/>
</mask>
<path d="M141.803 81.2373L143.218 79.8231C142.437 79.042 141.17 79.042 140.389 79.8231L141.803 81.2373ZM140.389 82.6515L147.46 89.7226L150.289 86.8942L143.218 79.8231L140.389 82.6515ZM136.146 89.7226L143.218 82.6515L140.389 79.8231L133.318 86.8942L136.146 89.7226Z" fill="#3E3E3E" mask="url(#path-70-inside-34_55_28)"/>
<mask id="path-72-inside-35_55_28" fill="white">
<path d="M155.945 81.2373L163.017 88.3084L155.945 95.3794L148.874 88.3084L155.945 81.2373Z"/>
</mask>
<path d="M155.945 81.2373L157.36 79.8231C156.579 79.042 155.312 79.042 154.531 79.8231L155.945 81.2373ZM154.531 82.6515L161.602 89.7226L164.431 86.8942L157.36 79.8231L154.531 82.6515ZM150.289 89.7226L157.36 82.6515L154.531 79.8231L147.46 86.8942L150.289 89.7226Z" fill="#3E3E3E" mask="url(#path-72-inside-35_55_28)"/>
<mask id="path-74-inside-36_55_28" fill="white">
<path d="M42.8083 95.2373L49.8794 102.308L42.8083 109.379L35.7373 102.308L42.8083 95.2373Z"/>
</mask>
<path d="M42.8083 95.2373L44.2226 93.8231C43.4415 93.042 42.1752 93.042 41.3941 93.8231L42.8083 95.2373ZM41.3941 96.6515L48.4652 103.723L51.2936 100.894L44.2226 93.8231L41.3941 96.6515ZM37.1515 103.723L44.2226 96.6515L41.3941 93.8231L34.3231 100.894L37.1515 103.723Z" fill="#3E3E3E" mask="url(#path-74-inside-36_55_28)"/>
<mask id="path-76-inside-37_55_28" fill="white">
<path d="M56.9506 95.2373L64.0216 102.308L56.9506 109.379L49.8795 102.308L56.9506 95.2373Z"/>
</mask>
<path d="M56.9506 95.2373L58.3648 93.8231C57.5837 93.042 56.3174 93.042 55.5363 93.8231L56.9506 95.2373ZM55.5363 96.6515L62.6074 103.723L65.4358 100.894L58.3648 93.8231L55.5363 96.6515ZM51.2937 103.723L58.3648 96.6515L55.5363 93.8231L48.4653 100.894L51.2937 103.723Z" fill="#3E3E3E" mask="url(#path-76-inside-37_55_28)"/>
<mask id="path-78-inside-38_55_28" fill="white">
<path d="M71.0927 95.2373L78.1637 102.308L71.0927 109.379L64.0216 102.308L71.0927 95.2373Z"/>
</mask>
<path d="M71.0927 95.2373L72.5069 93.8231C71.7258 93.042 70.4595 93.042 69.6784 93.8231L71.0927 95.2373ZM69.6784 96.6515L76.7495 103.723L79.5779 100.894L72.5069 93.8231L69.6784 96.6515ZM65.4358 103.723L72.5069 96.6515L69.6784 93.8231L62.6074 100.894L65.4358 103.723Z" fill="#3E3E3E" mask="url(#path-78-inside-38_55_28)"/>
<mask id="path-80-inside-39_55_28" fill="white">
<path d="M85.2347 95.2373L92.3058 102.308L85.2347 109.379L78.1637 102.308L85.2347 95.2373Z"/>
</mask>
<path d="M85.2347 95.2373L86.649 93.8231C85.8679 93.042 84.6016 93.042 83.8205 93.8231L85.2347 95.2373ZM83.8205 96.6515L90.8916 103.723L93.72 100.894L86.649 93.8231L83.8205 96.6515ZM79.5779 103.723L86.649 96.6515L83.8205 93.8231L76.7495 100.894L79.5779 103.723Z" fill="#3E3E3E" mask="url(#path-80-inside-39_55_28)"/>
<mask id="path-82-inside-40_55_28" fill="white">
<path d="M99.377 95.2373L106.448 102.308L99.377 109.379L92.3059 102.308L99.377 95.2373Z"/>
</mask>
<path d="M99.377 95.2373L100.791 93.8231C100.01 93.042 98.7438 93.042 97.9627 93.8231L99.377 95.2373ZM97.9627 96.6515L105.034 103.723L107.862 100.894L100.791 93.8231L97.9627 96.6515ZM93.7201 103.723L100.791 96.6515L97.9627 93.8231L90.8917 100.894L93.7201 103.723Z" fill="#3E3E3E" mask="url(#path-82-inside-40_55_28)"/>
<mask id="path-84-inside-41_55_28" fill="white">
<path d="M113.519 95.2373L120.59 102.308L113.519 109.379L106.448 102.308L113.519 95.2373Z"/>
</mask>
<path d="M113.519 95.2373L114.933 93.8231C114.152 93.042 112.886 93.042 112.105 93.8231L113.519 95.2373ZM112.105 96.6515L119.176 103.723L122.004 100.894L114.933 93.8231L112.105 96.6515ZM107.862 103.723L114.933 96.6515L112.105 93.8231L105.034 100.894L107.862 103.723Z" fill="#3E3E3E" mask="url(#path-84-inside-41_55_28)"/>
<mask id="path-86-inside-42_55_28" fill="white">
<path d="M127.661 95.2373L134.732 102.308L127.661 109.379L120.59 102.308L127.661 95.2373Z"/>
</mask>
<path d="M127.661 95.2373L129.075 93.8231C128.294 93.042 127.028 93.042 126.247 93.8231L127.661 95.2373ZM126.247 96.6515L133.318 103.723L136.146 100.894L129.075 93.8231L126.247 96.6515ZM122.004 103.723L129.075 96.6515L126.247 93.8231L119.176 100.894L122.004 103.723Z" fill="#3E3E3E" mask="url(#path-86-inside-42_55_28)"/>
<mask id="path-88-inside-43_55_28" fill="white">
<path d="M141.803 95.2373L148.874 102.308L141.803 109.379L134.732 102.308L141.803 95.2373Z"/>
</mask>
<path d="M141.803 95.2373L143.218 93.8231C142.437 93.042 141.17 93.042 140.389 93.8231L141.803 95.2373ZM140.389 96.6515L147.46 103.723L150.289 100.894L143.218 93.8231L140.389 96.6515ZM136.146 103.723L143.218 96.6515L140.389 93.8231L133.318 100.894L136.146 103.723Z" fill="#3E3E3E" mask="url(#path-88-inside-43_55_28)"/>
<mask id="path-90-inside-44_55_28" fill="white">
<path d="M155.945 95.2373L163.017 102.308L155.945 109.379L148.874 102.308L155.945 95.2373Z"/>
</mask>
<path d="M155.945 95.2373L157.36 93.8231C156.579 93.042 155.312 93.042 154.531 93.8231L155.945 95.2373ZM154.531 96.6515L161.602 103.723L164.431 100.894L157.36 93.8231L154.531 96.6515ZM150.289 103.723L157.36 96.6515L154.531 93.8231L147.46 100.894L150.289 103.723Z" fill="#3E3E3E" mask="url(#path-90-inside-44_55_28)"/>
<mask id="path-92-inside-45_55_28" fill="white">
<path d="M42.8083 109.237L49.8794 116.308L42.8083 123.379L35.7373 116.308L42.8083 109.237Z"/>
</mask>
<path d="M42.8083 109.237L44.2226 107.823C43.4415 107.042 42.1752 107.042 41.3941 107.823L42.8083 109.237ZM41.3941 110.652L48.4652 117.723L51.2936 114.894L44.2226 107.823L41.3941 110.652ZM37.1515 117.723L44.2226 110.652L41.3941 107.823L34.3231 114.894L37.1515 117.723Z" fill="#3E3E3E" mask="url(#path-92-inside-45_55_28)"/>
<mask id="path-94-inside-46_55_28" fill="white">
<path d="M56.9506 109.237L64.0216 116.308L56.9506 123.379L49.8795 116.308L56.9506 109.237Z"/>
</mask>
<path d="M56.9506 109.237L58.3648 107.823C57.5837 107.042 56.3174 107.042 55.5363 107.823L56.9506 109.237ZM55.5363 110.652L62.6074 117.723L65.4358 114.894L58.3648 107.823L55.5363 110.652ZM51.2937 117.723L58.3648 110.652L55.5363 107.823L48.4653 114.894L51.2937 117.723Z" fill="#3E3E3E" mask="url(#path-94-inside-46_55_28)"/>
<mask id="path-96-inside-47_55_28" fill="white">
<path d="M71.0927 109.237L78.1637 116.308L71.0927 123.379L64.0216 116.308L71.0927 109.237Z"/>
</mask>
<path d="M71.0927 109.237L72.5069 107.823C71.7258 107.042 70.4595 107.042 69.6784 107.823L71.0927 109.237ZM69.6784 110.652L76.7495 117.723L79.5779 114.894L72.5069 107.823L69.6784 110.652ZM65.4358 117.723L72.5069 110.652L69.6784 107.823L62.6074 114.894L65.4358 117.723Z" fill="#3E3E3E" mask="url(#path-96-inside-47_55_28)"/>
<mask id="path-98-inside-48_55_28" fill="white">
<path d="M85.2347 109.237L92.3058 116.308L85.2347 123.379L78.1637 116.308L85.2347 109.237Z"/>
</mask>
<path d="M85.2347 109.237L86.649 107.823C85.8679 107.042 84.6016 107.042 83.8205 107.823L85.2347 109.237ZM83.8205 110.652L90.8916 117.723L93.72 114.894L86.649 107.823L83.8205 110.652ZM79.5779 117.723L86.649 110.652L83.8205 107.823L76.7495 114.894L79.5779 117.723Z" fill="#3E3E3E" mask="url(#path-98-inside-48_55_28)"/>
<mask id="path-100-inside-49_55_28" fill="white">
<path d="M99.377 109.237L106.448 116.308L99.377 123.379L92.3059 116.308L99.377 109.237Z"/>
</mask>
<path d="M99.377 109.237L100.791 107.823C100.01 107.042 98.7438 107.042 97.9627 107.823L99.377 109.237ZM97.9627 110.652L105.034 117.723L107.862 114.894L100.791 107.823L97.9627 110.652ZM93.7201 117.723L100.791 110.652L97.9627 107.823L90.8917 114.894L93.7201 117.723Z" fill="#3E3E3E" mask="url(#path-100-inside-49_55_28)"/>
<mask id="path-102-inside-50_55_28" fill="white">
<path d="M113.519 109.237L120.59 116.308L113.519 123.379L106.448 116.308L113.519 109.237Z"/>
</mask>
<path d="M113.519 109.237L114.933 107.823C114.152 107.042 112.886 107.042 112.105 107.823L113.519 109.237ZM112.105 110.652L119.176 117.723L122.004 114.894L114.933 107.823L112.105 110.652ZM107.862 117.723L114.933 110.652L112.105 107.823L105.034 114.894L107.862 117.723Z" fill="#3E3E3E" mask="url(#path-102-inside-50_55_28)"/>
<mask id="path-104-inside-51_55_28" fill="white">
<path d="M127.661 109.237L134.732 116.308L127.661 123.379L120.59 116.308L127.661 109.237Z"/>
</mask>
<path d="M127.661 109.237L129.075 107.823C128.294 107.042 127.028 107.042 126.247 107.823L127.661 109.237ZM126.247 110.652L133.318 117.723L136.146 114.894L129.075 107.823L126.247 110.652ZM122.004 117.723L129.075 110.652L126.247 107.823L119.176 114.894L122.004 117.723Z" fill="#3E3E3E" mask="url(#path-104-inside-51_55_28)"/>
<mask id="path-106-inside-52_55_28" fill="white">
<path d="M141.803 109.237L148.874 116.308L141.803 123.379L134.732 116.308L141.803 109.237Z"/>
</mask>
<path d="M141.803 109.237L143.218 107.823C142.437 107.042 141.17 107.042 140.389 107.823L141.803 109.237ZM140.389 110.652L147.46 117.723L150.289 114.894L143.218 107.823L140.389 110.652ZM136.146 117.723L143.218 110.652L140.389 107.823L133.318 114.894L136.146 117.723Z" fill="#3E3E3E" mask="url(#path-106-inside-52_55_28)"/>
<mask id="path-108-inside-53_55_28" fill="white">
<path d="M155.945 109.237L163.017 116.308L155.945 123.379L148.874 116.308L155.945 109.237Z"/>
</mask>
<path d="M155.945 109.237L157.36 107.823C156.579 107.042 155.312 107.042 154.531 107.823L155.945 109.237ZM154.531 110.652L161.602 117.723L164.431 114.894L157.36 107.823L154.531 110.652ZM150.289 117.723L157.36 110.652L154.531 107.823L147.46 114.894L150.289 117.723Z" fill="#3E3E3E" mask="url(#path-108-inside-53_55_28)"/>
<mask id="path-110-inside-54_55_28" fill="white">
<path d="M42.8083 123.237L49.8794 130.308L42.8083 137.379L35.7373 130.308L42.8083 123.237Z"/>
</mask>
<path d="M42.8083 123.237L44.2226 121.823C43.4415 121.042 42.1752 121.042 41.3941 121.823L42.8083 123.237ZM41.3941 124.652L48.4652 131.723L51.2936 128.894L44.2226 121.823L41.3941 124.652ZM37.1515 131.723L44.2226 124.652L41.3941 121.823L34.3231 128.894L37.1515 131.723Z" fill="#3E3E3E" mask="url(#path-110-inside-54_55_28)"/>
<mask id="path-112-inside-55_55_28" fill="white">
<path d="M56.9506 123.237L64.0216 130.308L56.9506 137.379L49.8795 130.308L56.9506 123.237Z"/>
</mask>
<path d="M56.9506 123.237L58.3648 121.823C57.5837 121.042 56.3174 121.042 55.5363 121.823L56.9506 123.237ZM55.5363 124.652L62.6074 131.723L65.4358 128.894L58.3648 121.823L55.5363 124.652ZM51.2937 131.723L58.3648 124.652L55.5363 121.823L48.4653 128.894L51.2937 131.723Z" fill="#3E3E3E" mask="url(#path-112-inside-55_55_28)"/>
<mask id="path-114-inside-56_55_28" fill="white">
<path d="M71.0927 123.237L78.1637 130.308L71.0927 137.379L64.0216 130.308L71.0927 123.237Z"/>
</mask>
<path d="M71.0927 123.237L72.5069 121.823C71.7258 121.042 70.4595 121.042 69.6784 121.823L71.0927 123.237ZM69.6784 124.652L76.7495 131.723L79.5779 128.894L72.5069 121.823L69.6784 124.652ZM65.4358 131.723L72.5069 124.652L69.6784 121.823L62.6074 128.894L65.4358 131.723Z" fill="#3E3E3E" mask="url(#path-114-inside-56_55_28)"/>
<mask id="path-116-inside-57_55_28" fill="white">
<path d="M85.2347 123.237L92.3058 130.308L85.2347 137.379L78.1637 130.308L85.2347 123.237Z"/>
</mask>
<path d="M85.2347 123.237L86.649 121.823C85.8679 121.042 84.6016 121.042 83.8205 121.823L85.2347 123.237ZM83.8205 124.652L90.8916 131.723L93.72 128.894L86.649 121.823L83.8205 124.652ZM79.5779 131.723L86.649 124.652L83.8205 121.823L76.7495 128.894L79.5779 131.723Z" fill="#3E3E3E" mask="url(#path-116-inside-57_55_28)"/>
<mask id="path-118-inside-58_55_28" fill="white">
<path d="M99.377 123.237L106.448 130.308L99.377 137.379L92.3059 130.308L99.377 123.237Z"/>
</mask>
<path d="M99.377 123.237L100.791 121.823C100.01 121.042 98.7438 121.042 97.9627 121.823L99.377 123.237ZM97.9627 124.652L105.034 131.723L107.862 128.894L100.791 121.823L97.9627 124.652ZM93.7201 131.723L100.791 124.652L97.9627 121.823L90.8917 128.894L93.7201 131.723Z" fill="#3E3E3E" mask="url(#path-118-inside-58_55_28)"/>
<mask id="path-120-inside-59_55_28" fill="white">
<path d="M113.519 123.237L120.59 130.308L113.519 137.379L106.448 130.308L113.519 123.237Z"/>
</mask>
<path d="M113.519 123.237L114.933 121.823C114.152 121.042 112.886 121.042 112.105 121.823L113.519 123.237ZM112.105 124.652L119.176 131.723L122.004 128.894L114.933 121.823L112.105 124.652ZM107.862 131.723L114.933 124.652L112.105 121.823L105.034 128.894L107.862 131.723Z" fill="#3E3E3E" mask="url(#path-120-inside-59_55_28)"/>
<mask id="path-122-inside-60_55_28" fill="white">
<path d="M127.661 123.237L134.732 130.308L127.661 137.379L120.59 130.308L127.661 123.237Z"/>
</mask>
<path d="M127.661 123.237L129.075 121.823C128.294 121.042 127.028 121.042 126.247 121.823L127.661 123.237ZM126.247 124.652L133.318 131.723L136.146 128.894L129.075 121.823L126.247 124.652ZM122.004 131.723L129.075 124.652L126.247 121.823L119.176 128.894L122.004 131.723Z" fill="#3E3E3E" mask="url(#path-122-inside-60_55_28)"/>
<mask id="path-124-inside-61_55_28" fill="white">
<path d="M141.803 123.237L148.874 130.308L141.803 137.379L134.732 130.308L141.803 123.237Z"/>
</mask>
<path d="M141.803 123.237L143.218 121.823C142.437 121.042 141.17 121.042 140.389 121.823L141.803 123.237ZM140.389 124.652L147.46 131.723L150.289 128.894L143.218 121.823L140.389 124.652ZM136.146 131.723L143.218 124.652L140.389 121.823L133.318 128.894L136.146 131.723Z" fill="#3E3E3E" mask="url(#path-124-inside-61_55_28)"/>
<mask id="path-126-inside-62_55_28" fill="white">
<path d="M155.945 123.237L163.017 130.308L155.945 137.379L148.874 130.308L155.945 123.237Z"/>
</mask>
<path d="M155.945 123.237L157.36 121.823C156.579 121.042 155.312 121.042 154.531 121.823L155.945 123.237ZM154.531 124.652L161.602 131.723L164.431 128.894L157.36 121.823L154.531 124.652ZM150.289 131.723L157.36 124.652L154.531 121.823L147.46 128.894L150.289 131.723Z" fill="#3E3E3E" mask="url(#path-126-inside-62_55_28)"/>
<mask id="path-128-inside-63_55_28" fill="white">
<path d="M56.8083 137.237L63.8794 144.308L56.8083 151.379L49.7373 144.308L56.8083 137.237Z"/>
</mask>
<path d="M56.8083 137.237L58.2226 135.823C57.4415 135.042 56.1752 135.042 55.3941 135.823L56.8083 137.237ZM55.3941 138.652L62.4652 145.723L65.2936 142.894L58.2226 135.823L55.3941 138.652ZM51.1515 145.723L58.2226 138.652L55.3941 135.823L48.3231 142.894L51.1515 145.723Z" fill="#3E3E3E" mask="url(#path-128-inside-63_55_28)"/>
<mask id="path-130-inside-64_55_28" fill="white">
<path d="M70.9506 137.237L78.0216 144.308L70.9506 151.379L63.8795 144.308L70.9506 137.237Z"/>
</mask>
<path d="M70.9506 137.237L72.3648 135.823C71.5837 135.042 70.3174 135.042 69.5363 135.823L70.9506 137.237ZM69.5363 138.652L76.6074 145.723L79.4358 142.894L72.3648 135.823L69.5363 138.652ZM65.2937 145.723L72.3648 138.652L69.5363 135.823L62.4653 142.894L65.2937 145.723Z" fill="#3E3E3E" mask="url(#path-130-inside-64_55_28)"/>
<mask id="path-132-inside-65_55_28" fill="white">
<path d="M85.0927 137.237L92.1637 144.308L85.0927 151.379L78.0216 144.308L85.0927 137.237Z"/>
</mask>
<path d="M85.0927 137.237L86.5069 135.823C85.7258 135.042 84.4595 135.042 83.6784 135.823L85.0927 137.237ZM83.6784 138.652L90.7495 145.723L93.5779 142.894L86.5069 135.823L83.6784 138.652ZM79.4358 145.723L86.5069 138.652L83.6784 135.823L76.6074 142.894L79.4358 145.723Z" fill="#3E3E3E" mask="url(#path-132-inside-65_55_28)"/>
<mask id="path-134-inside-66_55_28" fill="white">
<path d="M99.2347 137.237L106.306 144.308L99.2347 151.379L92.1637 144.308L99.2347 137.237Z"/>
</mask>
<path d="M99.2347 137.237L100.649 135.823C99.8679 135.042 98.6016 135.042 97.8205 135.823L99.2347 137.237ZM97.8205 138.652L104.892 145.723L107.72 142.894L100.649 135.823L97.8205 138.652ZM93.5779 145.723L100.649 138.652L97.8205 135.823L90.7495 142.894L93.5779 145.723Z" fill="#3E3E3E" mask="url(#path-134-inside-66_55_28)"/>
<mask id="path-136-inside-67_55_28" fill="white">
<path d="M113.377 137.237L120.448 144.308L113.377 151.379L106.306 144.308L113.377 137.237Z"/>
</mask>
<path d="M113.377 137.237L114.791 135.823C114.01 135.042 112.744 135.042 111.963 135.823L113.377 137.237ZM111.963 138.652L119.034 145.723L121.862 142.894L114.791 135.823L111.963 138.652ZM107.72 145.723L114.791 138.652L111.963 135.823L104.892 142.894L107.72 145.723Z" fill="#3E3E3E" mask="url(#path-136-inside-67_55_28)"/>
<mask id="path-138-inside-68_55_28" fill="white">
<path d="M127.519 137.237L134.59 144.308L127.519 151.379L120.448 144.308L127.519 137.237Z"/>
</mask>
<path d="M127.519 137.237L128.933 135.823C128.152 135.042 126.886 135.042 126.105 135.823L127.519 137.237ZM126.105 138.652L133.176 145.723L136.004 142.894L128.933 135.823L126.105 138.652ZM121.862 145.723L128.933 138.652L126.105 135.823L119.034 142.894L121.862 145.723Z" fill="#3E3E3E" mask="url(#path-138-inside-68_55_28)"/>
<mask id="path-140-inside-69_55_28" fill="white">
<path d="M141.661 137.237L148.732 144.308L141.661 151.379L134.59 144.308L141.661 137.237Z"/>
</mask>
<path d="M141.661 137.237L143.075 135.823C142.294 135.042 141.028 135.042 140.247 135.823L141.661 137.237ZM140.247 138.652L147.318 145.723L150.146 142.894L143.075 135.823L140.247 138.652ZM136.004 145.723L143.075 138.652L140.247 135.823L133.176 142.894L136.004 145.723Z" fill="#3E3E3E" mask="url(#path-140-inside-69_55_28)"/>
</svg>
