<svg width="203" height="202" viewBox="0 0 203 202" fill="none" xmlns="http://www.w3.org/2000/svg">
<circle cx="166.907" cy="35.5926" r="20" transform="rotate(-45 166.907 35.5926)" stroke="#212121" stroke-width="10"/>
<circle cx="36.0926" cy="166.407" r="20" transform="rotate(-45 36.0926 166.407)" stroke="#212121" stroke-width="10"/>
<circle cx="102" cy="101" r="97.5" fill="#212121" stroke="#333333" stroke-width="5"/>
<ellipse cx="101.5" cy="101" rx="76.5" ry="76" fill="#333333"/>
<path d="M101.5 36.5C113.504 36.5 125.273 39.7988 135.503 46.0292C145.732 52.2596 154.021 61.1776 159.454 71.7932C164.887 82.4086 167.253 94.3084 166.29 106.175C165.328 118.041 161.075 129.413 154 139.03" stroke="#3E3E3E" stroke-width="5" stroke-linecap="round"/>
<path d="M101.5 165.5C89.4955 165.5 77.7266 162.201 67.4974 155.971C57.2683 149.741 48.979 140.823 43.5459 130.207C38.1128 119.591 35.7471 107.692 36.7095 95.8255C37.672 83.9592 41.9253 72.5875 49.0003 62.9702" stroke="#3E3E3E" stroke-width="5" stroke-linecap="round"/>
</svg>
