<svg width="247" height="73" viewBox="0 0 247 73" fill="none" xmlns="http://www.w3.org/2000/svg">
<g filter="url(#filter0_d_8_335)">
<path fill-rule="evenodd" clip-rule="evenodd" d="M41.9993 0C38.6856 0 35.9993 2.68629 35.9993 6V42V53.5V59C35.9993 62.3137 38.6856 65 41.9993 65H210.999C214.313 65 216.999 62.3137 216.999 59V6C216.999 2.68629 214.313 0 210.999 0H41.9993ZM47.9377 17.68L57.2617 31H62.6617L53.2657 17.68L62.6617 5.8H57.2617L47.9377 17.68ZM42.9697 5.8V31H47.5777V5.8H42.9697ZM63.74 5.8V31H80.228V26.536H68.456V20.092H77.312V15.628H68.456V10.264H79.868V6.69343L88.197 20.812V31H92.805V20.812L101.661 5.8H96.621L90.501 16.663L84.381 5.8H79.868H79.341H63.74ZM102.328 5.8V31H112.84C115.384 31 117.388 30.376 118.852 29.128C120.316 27.868 121.048 26.104 121.048 23.836C121.048 21.94 120.55 20.416 119.554 19.264C118.769 18.3563 117.667 17.6722 116.249 17.2115C116.991 16.7896 117.582 16.2498 118.024 15.592C118.696 14.596 119.032 13.36 119.032 11.884C119.032 9.904 118.438 8.398 117.25 7.366C116.074 6.322 114.268 5.8 111.832 5.8H102.328ZM112.156 26.896H106.936V19.804H112.156C113.332 19.804 114.316 20.05 115.108 20.542C115.9 21.034 116.296 21.964 116.296 23.332C116.296 24.676 115.918 25.606 115.162 26.122C114.418 26.638 113.416 26.896 112.156 26.896ZM111.148 15.7H106.936V9.904H111.148C112.264 9.904 113.098 10.132 113.65 10.588C114.214 11.032 114.496 11.776 114.496 12.82C114.496 13.828 114.214 14.56 113.65 15.016C113.098 15.472 112.264 15.7 111.148 15.7ZM127.563 29.884C129.435 30.964 131.571 31.504 133.971 31.504C136.371 31.504 138.507 30.964 140.379 29.884C142.251 28.792 143.721 27.268 144.789 25.312C145.857 23.344 146.391 21.04 146.391 18.4C146.391 15.76 145.857 13.462 144.789 11.506C143.721 9.538 142.251 8.014 140.379 6.934C138.507 5.842 136.371 5.296 133.971 5.296C131.571 5.296 129.435 5.842 127.563 6.934C125.691 8.014 124.221 9.538 123.153 11.506C122.085 13.462 121.551 15.76 121.551 18.4C121.551 21.04 122.085 23.344 123.153 25.312C124.221 27.268 125.691 28.792 127.563 29.884ZM138.183 25.924C137.055 26.668 135.651 27.04 133.971 27.04C132.291 27.04 130.887 26.668 129.759 25.924C128.631 25.18 127.785 24.16 127.221 22.864C126.657 21.556 126.375 20.068 126.375 18.4C126.375 16.732 126.657 15.25 127.221 13.954C127.785 12.646 128.631 11.62 129.759 10.876C130.887 10.132 132.291 9.76 133.971 9.76C135.651 9.76 137.055 10.132 138.183 10.876C139.311 11.62 140.157 12.646 140.721 13.954C141.285 15.25 141.567 16.732 141.567 18.4C141.567 20.068 141.285 21.556 140.721 22.864C140.157 24.16 139.311 25.18 138.183 25.924ZM159.868 20.992L156.706 11.9908L153.543 20.992H159.868ZM152.127 25.024L150.028 31H145.564L154.528 5.8H158.884L167.848 31H163.384L161.284 25.024H152.127ZM178.144 5.8H168.928V31H173.536V21.64H178.036H178.126H178.216L183.076 31H188.224L182.536 20.416C183.82 19.78 184.852 18.922 185.632 17.842C186.424 16.75 186.82 15.28 186.82 13.432C186.82 11.704 186.46 10.276 185.74 9.148C185.02 8.02 184.006 7.18 182.698 6.628C181.402 6.076 179.884 5.8 178.144 5.8ZM176.92 17.788H173.536V9.652H177.1C178.9 9.652 180.166 10.012 180.898 10.732C181.63 11.44 181.996 12.424 181.996 13.684C181.996 14.872 181.624 15.856 180.88 16.636C180.136 17.404 178.816 17.788 176.92 17.788ZM199.095 5.8H189.663V31H199.095C201.495 31 203.631 30.502 205.503 29.506C207.375 28.498 208.845 27.058 209.913 25.186C210.981 23.302 211.515 21.04 211.515 18.4C211.515 15.76 210.981 13.504 209.913 11.632C208.845 9.748 207.375 8.308 205.503 7.312C203.631 6.304 201.495 5.8 199.095 5.8ZM199.095 26.896H194.271V9.904H199.095C200.727 9.904 202.089 10.246 203.181 10.93C204.273 11.614 205.095 12.592 205.647 13.864C206.199 15.136 206.475 16.648 206.475 18.4C206.475 20.152 206.199 21.664 205.647 22.936C205.095 24.208 204.273 25.186 203.181 25.87C202.089 26.554 200.727 26.896 199.095 26.896ZM66.4791 46.68L75.8031 60H81.2031L71.8071 46.68L81.2031 34.8H75.8031L66.4791 46.68ZM61.5111 34.8V60H66.1191V34.8H61.5111ZM82.2814 34.8V60H86.8894V34.8H82.2814ZM95.5376 39.264V60H100.146V39.264H107.274V34.8H88.4096V39.264H95.5376ZM112.945 58.884C114.889 59.964 117.139 60.504 119.695 60.504C120.919 60.504 122.095 60.366 123.223 60.09C124.363 59.826 125.407 59.472 126.355 59.028L125.851 54.636C124.879 55.068 123.913 55.416 122.953 55.68C121.993 55.944 120.907 56.076 119.695 56.076C117.955 56.076 116.497 55.704 115.321 54.96C114.157 54.216 113.281 53.19 112.693 51.882C112.105 50.574 111.811 49.08 111.811 47.4C111.811 45.72 112.111 44.226 112.711 42.918C113.311 41.61 114.199 40.584 115.375 39.84C116.563 39.096 118.039 38.724 119.803 38.724C120.991 38.724 122.065 38.862 123.025 39.138C123.997 39.402 124.939 39.744 125.851 40.164L126.355 35.772C125.551 35.352 124.597 35.004 123.493 34.728C122.389 34.44 121.171 34.296 119.839 34.296C117.307 34.296 115.057 34.842 113.089 35.934C111.121 37.014 109.573 38.538 108.445 40.506C107.329 42.462 106.771 44.76 106.771 47.4C106.771 50.04 107.311 52.344 108.391 54.312C109.483 56.268 111.001 57.792 112.945 58.884ZM128.42 34.8V60H133.028V49.092H144.548V60H149.156V34.8H144.548V44.772H133.028V34.8H128.42ZM152.917 34.8V60H169.405V55.536H157.633V49.092H166.489V44.628H157.633V39.264H169.045V34.8H152.917ZM171.578 34.8V60H176.186V42.72L187.706 60H191.486V34.8H186.878V51.072L176.114 34.8H171.578Z" fill="white"/>
<path d="M240 40.7826H224C224 40.7826 224 12.5217 240 6V56" stroke="white" stroke-width="6" stroke-linecap="round" stroke-linejoin="round"/>
<path d="M17.8696 7V20.0435M17.8696 30.913V57M17.8696 30.913C14.9868 30.913 12.2221 29.7679 10.1836 27.7294C8.14518 25.691 7 22.9263 7 20.0435L9.17391 7M17.8696 30.913C20.7524 30.913 23.5171 29.7679 25.5555 27.7294C27.5939 25.691 28.7391 22.9263 28.7391 20.0435L26.5652 7" stroke="white" stroke-width="6" stroke-linecap="round" stroke-linejoin="round"/>
</g>
<defs>
<filter id="filter0_d_8_335" x="0" y="0" width="247" height="73" filterUnits="userSpaceOnUse" color-interpolation-filters="sRGB">
<feFlood flood-opacity="0" result="BackgroundImageFix"/>
<feColorMatrix in="SourceAlpha" type="matrix" values="0 0 0 0 0 0 0 0 0 0 0 0 0 0 0 0 0 0 127 0" result="hardAlpha"/>
<feOffset dy="4"/>
<feGaussianBlur stdDeviation="2"/>
<feComposite in2="hardAlpha" operator="out"/>
<feColorMatrix type="matrix" values="0 0 0 0 0 0 0 0 0 0 0 0 0 0 0 0 0 0 0.25 0"/>
<feBlend mode="normal" in2="BackgroundImageFix" result="effect1_dropShadow_8_335"/>
<feBlend mode="normal" in="SourceGraphic" in2="effect1_dropShadow_8_335" result="shape"/>
</filter>
</defs>
</svg>
